<?xml version="1.0" standalone="no"?>
<!DOCTYPE svg PUBLIC "-//W3C//DTD SVG 20010904//EN"
 "http://www.w3.org/TR/2001/REC-SVG-20010904/DTD/svg10.dtd">
<svg version="1.0" xmlns="http://www.w3.org/2000/svg"
 width="313.000000pt" height="376.000000pt" viewBox="0 0 313.000000 376.000000"
 preserveAspectRatio="xMidYMid meet">

<g transform="translate(0.000000,376.000000) scale(0.100000,-0.100000)"
fill="#000000" stroke="none">
<path d="M100 3265 l0 -395 80 0 80 0 0 235 c0 129 4 235 8 235 7 0 538 -237
726 -324 43 -20 80 -35 82 -33 3 2 -30 31 -72 63 -42 32 -186 147 -321 254
l-245 195 241 3 241 2 0 80 0 80 -410 0 -410 0 0 -395z"/>
<path d="M2180 3580 l0 -80 241 -2 241 -3 -245 -195 c-135 -107 -279 -222
-321 -254 -42 -32 -75 -61 -73 -63 4 -3 73 26 197 84 139 66 605 273 612 273
5 0 8 -106 8 -235 l0 -235 80 0 80 0 0 395 0 395 -410 0 -410 0 0 -80z"/>
<path d="M1512 2914 c-27 -18 -60 -81 -79 -149 -10 -33 -17 -143 -23 -330 -5
-154 -11 -314 -14 -355 -29 -389 -68 -889 -72 -907 -3 -19 -11 -23 -38 -23
-55 0 -176 26 -308 66 -139 42 -231 49 -284 22 -16 -9 -49 -37 -73 -63 l-43
-46 88 -51 c49 -28 121 -72 161 -99 l72 -49 3 -277 3 -278 26 -50 c33 -61 50
-78 114 -107 73 -33 219 -32 288 1 26 13 50 21 53 18 3 -2 10 -43 17 -91 l11
-86 468 0 468 0 0 90 c0 50 2 90 4 90 2 0 25 -10 52 -22 65 -29 195 -31 272
-5 74 26 151 100 188 179 26 57 29 73 29 173 0 104 -2 114 -32 175 -48 98
-127 162 -216 177 -27 4 -37 10 -33 20 35 89 50 167 51 248 0 100 -12 133 -86
232 -46 61 -254 244 -333 292 -117 70 -281 121 -395 121 -73 0 -109 -12 -139
-48 l-23 -27 8 95 c13 178 9 789 -6 855 -21 95 -50 162 -82 195 -34 33 -63 38
-97 14z m-343 -2264 c88 -130 144 -236 136 -261 -17 -52 -126 -77 -186 -42
-54 32 -64 69 -67 268 l-4 180 32 -30 c17 -16 57 -68 89 -115z m1459 126 c72
-37 102 -103 102 -218 -1 -150 -63 -228 -182 -228 -78 0 -141 50 -168 133 -11
35 -9 41 28 110 21 39 60 105 86 145 41 63 51 72 77 72 16 0 42 -6 57 -14z"/>
<path d="M2840 2325 c0 -129 -3 -235 -6 -235 -6 0 -605 267 -733 327 -76 35
-102 39 -54 8 15 -10 160 -125 322 -254 l295 -236 -242 -3 -242 -2 0 -80 0
-80 410 0 410 0 0 395 0 395 -80 0 -80 0 0 -235z"/>
<path d="M100 2155 l0 -395 410 0 410 0 0 80 0 80 -241 2 -241 3 320 255 c176
140 319 256 317 258 -2 2 -22 -6 -46 -19 -65 -32 -752 -339 -761 -339 -4 0 -8
106 -8 235 l0 235 -80 0 -80 0 0 -395z"/>
<path d="M365 908 c-31 -83 -255 -701 -255 -704 0 -2 38 -4 85 -4 l84 0 24 77
24 78 130 3 131 3 24 -78 24 -78 87 -3 87 -3 -54 153 c-29 84 -87 246 -127
361 l-74 207 -93 0 c-65 0 -94 -4 -97 -12z m141 -278 c20 -69 39 -131 42 -137
3 -10 -19 -13 -91 -13 l-95 0 34 108 c19 59 40 129 47 155 14 55 10 62 63
-113z"/>
</g>
</svg>
