<svg xmlns="http://www.w3.org/2000/svg" height="642pt" version="1.1" viewBox="-33 0 642 642.07715" width="642pt">
<g id="surface1">
<path d="M 22.136719 575.601562 L 363.4375 575.601562 C 362.039062 572.5 360.839844 569.300781 359.738281 566 C 359.4375 564.898438 359.136719 563.898438 358.839844 562.800781 C 358.136719 560.5 357.539062 558.199219 357.039062 555.898438 C 356.738281 554.601562 356.539062 553.398438 356.238281 552.101562 C 355.839844 549.898438 355.4375 547.601562 355.136719 545.300781 C 354.9375 544 354.839844 542.699219 354.738281 541.398438 C 354.539062 539 354.4375 536.5 354.339844 534 C 354.339844 533.101562 354.238281 532.300781 354.238281 531.398438 C 354.238281 531.101562 354.238281 530.800781 354.238281 530.5 C 354.238281 527.800781 354.4375 525 354.636719 522.199219 C 354.738281 521.398438 354.738281 520.601562 354.738281 519.800781 C 355.4375 512.898438 356.839844 506 358.738281 499.398438 C 369.238281 463.800781 397.136719 435.898438 432.738281 425.300781 C 439.4375 423.300781 446.339844 422 453.238281 421.300781 C 454.039062 421.199219 454.9375 421.199219 455.738281 421.101562 C 458.4375 420.898438 461.238281 420.699219 463.9375 420.699219 C 464.238281 420.699219 464.539062 420.699219 464.839844 420.699219 C 465.738281 420.699219 466.539062 420.800781 467.4375 420.800781 C 469.9375 420.898438 472.339844 421 474.839844 421.199219 C 476.136719 421.300781 477.4375 421.5 478.738281 421.699219 C 481.039062 422 483.238281 422.398438 485.539062 422.800781 C 486.839844 423 488.136719 423.300781 489.339844 423.601562 C 491.636719 424.101562 493.9375 424.699219 496.238281 425.398438 C 497.339844 425.699219 498.4375 426 499.4375 426.398438 C 502.738281 427.5 505.9375 428.699219 509.039062 430.101562 L 509.039062 22.101562 C 509.039062 9.898438 499.136719 0 486.9375 0 L 143.9375 0 L 143.9375 110.699219 C 143.9375 122.898438 134.039062 132.800781 121.839844 132.800781 L 0.0390625 132.800781 L 0.0390625 553.398438 C 0.0390625 565.601562 9.9375 575.601562 22.136719 575.601562 Z M 420.636719 221.398438 Z M 132.839844 221.398438 Z M 420.636719 287.800781 Z M 420.636719 354.199219 Z M 365.339844 420.601562 Z M 321.039062 487 Z M 321.039062 487 " style=" stroke:none;fill-rule:nonzero;fill:rgb(100%,91.372549%,80%);fill-opacity:1;" />
<path d="M 143.9375 575.601562 L 487.039062 575.601562 C 499.238281 575.601562 509.136719 565.699219 509.136719 553.5 L 509.136719 233.5 C 448.738281 399 313.136719 526 143.9375 575.601562 Z M 143.9375 575.601562 " style=" stroke:none;fill-rule:nonzero;fill:rgb(100%,88.627451%,74.117647%);fill-opacity:1;" />
<path d="M 358.9375 562.699219 C 358.238281 560.398438 357.636719 558.101562 357.136719 555.800781 C 357.539062 558.199219 358.238281 560.5 358.9375 562.699219 Z M 358.9375 562.699219 " style=" stroke:none;fill-rule:nonzero;fill:rgb(100%,91.372549%,80%);fill-opacity:1;" />
<path d="M 354.738281 541.300781 C 354.539062 538.898438 354.4375 536.398438 354.339844 533.898438 C 354.4375 536.398438 354.539062 538.898438 354.738281 541.300781 Z M 354.738281 541.300781 " style=" stroke:none;fill-rule:nonzero;fill:rgb(100%,91.372549%,80%);fill-opacity:1;" />
<path d="M 356.238281 552 C 355.839844 549.800781 355.4375 547.5 355.136719 545.199219 C 355.4375 547.5 355.839844 549.800781 356.238281 552 Z M 356.238281 552 " style=" stroke:none;fill-rule:nonzero;fill:rgb(100%,91.372549%,80%);fill-opacity:1;" />
<path d="M 467.539062 420.699219 C 470.039062 420.800781 472.4375 420.898438 474.9375 421.101562 C 472.4375 420.898438 470.039062 420.800781 467.539062 420.699219 Z M 467.539062 420.699219 " style=" stroke:none;fill-rule:nonzero;fill:rgb(100%,91.372549%,80%);fill-opacity:1;" />
<path d="M 455.839844 421.101562 C 458.539062 420.898438 461.238281 420.699219 464.039062 420.699219 C 461.339844 420.699219 458.539062 420.800781 455.839844 421.101562 Z M 455.839844 421.101562 " style=" stroke:none;fill-rule:nonzero;fill:rgb(100%,91.372549%,80%);fill-opacity:1;" />
<path d="M 363.539062 575.601562 C 362.136719 572.5 360.9375 569.300781 359.839844 566 C 360.9375 569.199219 362.136719 572.398438 363.539062 575.601562 Z M 363.539062 575.601562 " style=" stroke:none;fill-rule:nonzero;fill:rgb(100%,91.372549%,80%);fill-opacity:1;" />
<path d="M 509.136719 429.898438 C 506.039062 428.5 502.839844 427.300781 499.539062 426.199219 C 502.839844 427.300781 506.039062 428.5 509.136719 429.898438 Z M 509.136719 429.898438 " style=" stroke:none;fill-rule:nonzero;fill:rgb(100%,91.372549%,80%);fill-opacity:1;" />
<path d="M 489.4375 423.398438 C 491.738281 423.898438 494.039062 424.5 496.339844 425.199219 C 494.039062 424.601562 491.839844 423.898438 489.4375 423.398438 Z M 489.4375 423.398438 " style=" stroke:none;fill-rule:nonzero;fill:rgb(100%,91.372549%,80%);fill-opacity:1;" />
<path d="M 354.238281 530.398438 C 354.238281 527.601562 354.4375 524.898438 354.636719 522.101562 C 354.4375 524.898438 354.339844 527.601562 354.238281 530.398438 Z M 354.238281 530.398438 " style=" stroke:none;fill-rule:nonzero;fill:rgb(100%,91.372549%,80%);fill-opacity:1;" />
<path d="M 478.839844 421.601562 C 481.136719 421.898438 483.339844 422.300781 485.636719 422.699219 C 483.4375 422.199219 481.136719 421.898438 478.839844 421.601562 Z M 478.839844 421.601562 " style=" stroke:none;fill-rule:nonzero;fill:rgb(100%,91.372549%,80%);fill-opacity:1;" />
<path d="M 453.339844 421.199219 C 446.4375 421.898438 439.539062 423.300781 432.839844 425.199219 C 397.238281 435.800781 369.339844 463.601562 358.839844 499.300781 C 356.9375 506 355.539062 512.800781 354.839844 519.699219 C 360.339844 467.800781 401.339844 426.699219 453.339844 421.199219 Z M 453.339844 421.199219 " style=" stroke:none;fill-rule:nonzero;fill:rgb(100%,91.372549%,80%);fill-opacity:1;" />
<path d="M 143.9375 110.699219 L 143.9375 0 L 0.0390625 132.800781 L 121.839844 132.800781 C 134.039062 132.800781 143.9375 122.898438 143.9375 110.699219 Z M 143.9375 110.699219 " style=" stroke:none;fill-rule:nonzero;fill:rgb(100%,66.27451%,57.647059%);fill-opacity:1;" />
<path d="M 496.339844 425.300781 C 494.136719 424.601562 491.738281 424 489.4375 423.5 C 488.136719 423.199219 486.9375 423 485.636719 422.699219 C 483.4375 422.300781 481.136719 421.898438 478.839844 421.601562 C 477.539062 421.398438 476.238281 421.300781 474.9375 421.101562 C 472.539062 420.898438 470.039062 420.800781 467.539062 420.699219 C 466.339844 420.699219 465.238281 420.601562 464.039062 420.601562 C 461.238281 420.601562 458.539062 420.800781 455.839844 421 C 455.039062 421.101562 454.136719 421.101562 453.339844 421.199219 C 401.339844 426.699219 360.339844 467.699219 354.839844 519.699219 C 354.738281 520.5 354.738281 521.300781 354.738281 522.101562 C 354.539062 524.800781 354.339844 527.601562 354.339844 530.398438 C 354.339844 531.601562 354.4375 532.699219 354.4375 533.898438 C 354.539062 536.398438 354.636719 538.898438 354.839844 541.300781 C 354.9375 542.601562 355.136719 543.898438 355.238281 545.199219 C 355.539062 547.5 355.9375 549.699219 356.339844 552 C 356.539062 553.300781 356.839844 554.601562 357.136719 555.800781 C 357.636719 558.101562 358.238281 560.398438 358.9375 562.699219 C 359.238281 563.800781 359.539062 564.800781 359.839844 565.898438 C 360.9375 569.199219 362.136719 572.398438 363.539062 575.5 C 387.9375 631.601562 453.136719 657.199219 509.136719 632.898438 C 565.238281 608.5 590.839844 543.300781 566.539062 487.300781 C 555.339844 461.601562 534.839844 441.101562 509.238281 430 C 506.136719 428.601562 502.9375 427.398438 499.636719 426.300781 C 498.539062 425.898438 497.4375 425.601562 496.339844 425.300781 Z M 464.9375 597.699219 L 464.9375 531.300781 Z M 464.9375 597.699219 " style=" stroke:none;fill-rule:nonzero;fill:rgb(49.411765%,74.117647%,31.372549%);fill-opacity:1;" />
<path d="M 354.738281 522.101562 C 354.839844 521.300781 354.839844 520.5 354.839844 519.699219 C 354.738281 520.5 354.738281 521.300781 354.738281 522.101562 Z M 354.738281 522.101562 " style=" stroke:none;fill-rule:nonzero;fill:rgb(100%,91.372549%,80%);fill-opacity:1;" />
<path d="M 354.238281 531.300781 C 354.238281 532.199219 354.339844 533 354.339844 533.898438 C 354.339844 532.800781 354.238281 531.601562 354.238281 530.398438 C 354.238281 530.699219 354.238281 531 354.238281 531.300781 Z M 354.238281 531.300781 " style=" stroke:none;fill-rule:nonzero;fill:rgb(100%,91.372549%,80%);fill-opacity:1;" />
<path d="M 453.339844 421.199219 C 454.136719 421.101562 455.039062 421.101562 455.839844 421 C 454.9375 421.101562 454.136719 421.101562 453.339844 421.199219 Z M 453.339844 421.199219 " style=" stroke:none;fill-rule:nonzero;fill:rgb(100%,91.372549%,80%);fill-opacity:1;" />
<path d="M 355.238281 545.199219 C 355.039062 543.898438 354.9375 542.601562 354.839844 541.300781 C 354.839844 542.601562 355.039062 543.898438 355.238281 545.199219 Z M 355.238281 545.199219 " style=" stroke:none;fill-rule:nonzero;fill:rgb(100%,91.372549%,80%);fill-opacity:1;" />
<path d="M 359.839844 565.898438 C 359.539062 564.800781 359.238281 563.800781 358.9375 562.699219 C 359.238281 563.800781 359.539062 564.898438 359.839844 565.898438 Z M 359.839844 565.898438 " style=" stroke:none;fill-rule:nonzero;fill:rgb(100%,91.372549%,80%);fill-opacity:1;" />
<path d="M 496.339844 425.300781 C 497.4375 425.601562 498.539062 425.898438 499.539062 426.300781 C 498.539062 425.898438 497.4375 425.601562 496.339844 425.300781 Z M 496.339844 425.300781 " style=" stroke:none;fill-rule:nonzero;fill:rgb(100%,91.372549%,80%);fill-opacity:1;" />
<path d="M 485.636719 422.601562 C 486.9375 422.800781 488.238281 423.101562 489.4375 423.398438 C 488.136719 423.101562 486.9375 422.898438 485.636719 422.601562 Z M 485.636719 422.601562 " style=" stroke:none;fill-rule:nonzero;fill:rgb(100%,91.372549%,80%);fill-opacity:1;" />
<path d="M 357.039062 555.800781 C 356.738281 554.5 356.539062 553.300781 356.238281 552 C 356.539062 553.300781 356.738281 554.5 357.039062 555.800781 Z M 357.039062 555.800781 " style=" stroke:none;fill-rule:nonzero;fill:rgb(100%,91.372549%,80%);fill-opacity:1;" />
<path d="M 474.839844 421.101562 C 476.136719 421.199219 477.4375 421.398438 478.738281 421.601562 C 477.539062 421.398438 476.238281 421.199219 474.839844 421.101562 Z M 474.839844 421.101562 " style=" stroke:none;fill-rule:nonzero;fill:rgb(100%,91.372549%,80%);fill-opacity:1;" />
<path d="M 464.9375 420.601562 C 464.636719 420.601562 464.339844 420.601562 464.039062 420.601562 C 465.238281 420.601562 466.4375 420.699219 467.539062 420.699219 C 466.636719 420.699219 465.839844 420.601562 464.9375 420.601562 Z M 464.9375 420.601562 " style=" stroke:none;fill-rule:nonzero;fill:rgb(100%,91.372549%,80%);fill-opacity:1;" />
<path d="M 464.9375 608.800781 C 458.839844 608.800781 453.839844 603.800781 453.839844 597.699219 L 453.839844 464.898438 C 453.839844 458.800781 458.839844 453.800781 464.9375 453.800781 C 471.039062 453.800781 476.039062 458.800781 476.039062 464.898438 L 476.039062 597.699219 C 475.9375 603.800781 471.039062 608.800781 464.9375 608.800781 Z M 464.9375 608.800781 " style=" stroke:none;fill-rule:nonzero;fill:rgb(94.509804%,94.901961%,94.901961%);fill-opacity:1;" />
<path d="M 531.339844 542.300781 L 398.539062 542.300781 C 392.4375 542.300781 387.4375 537.300781 387.4375 531.199219 C 387.4375 525.101562 392.4375 520.101562 398.539062 520.101562 L 531.339844 520.101562 C 537.4375 520.101562 542.4375 525.101562 542.4375 531.199219 C 542.4375 537.398438 537.4375 542.300781 531.339844 542.300781 Z M 531.339844 542.300781 " style=" stroke:none;fill-rule:nonzero;fill:rgb(94.509804%,94.901961%,94.901961%);fill-opacity:1;" />
<path d="M 420.636719 298.800781 L 88.636719 298.800781 C 82.539062 298.800781 77.539062 293.800781 77.539062 287.699219 C 77.539062 281.601562 82.539062 276.601562 88.636719 276.601562 L 420.636719 276.601562 C 426.738281 276.601562 431.738281 281.601562 431.738281 287.699219 C 431.738281 293.898438 426.738281 298.800781 420.636719 298.800781 Z M 420.636719 298.800781 " style=" stroke:none;fill-rule:nonzero;fill:rgb(100%,47.45098%,33.72549%);fill-opacity:1;" />
<path d="M 420.636719 365.300781 L 88.636719 365.300781 C 82.539062 365.300781 77.539062 360.300781 77.539062 354.199219 C 77.539062 348.101562 82.539062 343.101562 88.636719 343.101562 L 420.636719 343.101562 C 426.738281 343.101562 431.738281 348.101562 431.738281 354.199219 C 431.738281 360.300781 426.738281 365.300781 420.636719 365.300781 Z M 420.636719 365.300781 " style=" stroke:none;fill-rule:nonzero;fill:rgb(100%,47.45098%,33.72549%);fill-opacity:1;" />
<path d="M 365.339844 431.699219 L 88.636719 431.699219 C 82.539062 431.699219 77.539062 426.699219 77.539062 420.601562 C 77.539062 414.5 82.539062 409.5 88.636719 409.5 L 365.339844 409.5 C 371.4375 409.5 376.4375 414.5 376.4375 420.601562 C 376.4375 426.699219 371.4375 431.699219 365.339844 431.699219 Z M 365.339844 431.699219 " style=" stroke:none;fill-rule:nonzero;fill:rgb(100%,47.45098%,33.72549%);fill-opacity:1;" />
<path d="M 321.039062 498.101562 L 88.636719 498.101562 C 82.539062 498.101562 77.539062 493.101562 77.539062 487 C 77.539062 480.898438 82.539062 475.898438 88.636719 475.898438 L 321.039062 475.898438 C 327.136719 475.898438 332.136719 480.898438 332.136719 487 C 332.136719 493.101562 327.136719 498.101562 321.039062 498.101562 Z M 321.039062 498.101562 " style=" stroke:none;fill-rule:nonzero;fill:rgb(100%,47.45098%,33.72549%);fill-opacity:1;" />
<path d="M 420.636719 232.398438 L 177.136719 232.398438 C 171.039062 232.398438 166.039062 227.398438 166.039062 221.300781 C 166.039062 215.199219 171.039062 210.199219 177.136719 210.199219 L 420.636719 210.199219 C 426.738281 210.199219 431.738281 215.199219 431.738281 221.300781 C 431.738281 227.5 426.738281 232.398438 420.636719 232.398438 Z M 420.636719 232.398438 " style=" stroke:none;fill-rule:nonzero;fill:rgb(100%,47.45098%,33.72549%);fill-opacity:1;" />
<path d="M 132.839844 232.398438 L 88.636719 232.398438 C 82.539062 232.398438 77.539062 227.398438 77.539062 221.300781 C 77.539062 215.199219 82.539062 210.199219 88.636719 210.199219 L 132.839844 210.199219 C 138.9375 210.199219 143.9375 215.199219 143.9375 221.300781 C 143.9375 227.5 138.9375 232.398438 132.839844 232.398438 Z M 132.839844 232.398438 " style=" stroke:none;fill-rule:nonzero;fill:rgb(100%,47.45098%,33.72549%);fill-opacity:1;" />
</g>
</svg>