<?xml version="1.0" encoding="iso-8859-1"?>
<!-- Generator: Adobe Illustrator 21.0.0, SVG Export Plug-In . SVG Version: 6.00 Build 0)  -->
<svg version="1.1" id="Capa_1" xmlns="http://www.w3.org/2000/svg" xmlns:xlink="http://www.w3.org/1999/xlink" x="0px" y="0px"
	 viewBox="0 0 512.001 512.001" style="enable-background:new 0 0 512.001 512.001;" xml:space="preserve">
<polygon style="fill:#EBEBEB;" points="479.492,28.195 479.492,109.966 479.492,414.443 0,414.443 0,28.195 "/>
<path style="fill:#CCCCCC;" d="M454.42,143.164h-8.127H302.716c-13.464,0-24.381,10.904-24.381,24.381
	c0,13.464-10.917,24.381-24.381,24.381H58.907c-13.464,0-24.381,10.904-24.381,24.381v198.136h444.275V235.27v-43.344v-24.381
	C478.801,154.068,467.884,143.164,454.42,143.164z"/>
<path style="fill:#A6E2E3;" d="M512,202.072v257.354c0,13.464-10.917,24.381-24.381,24.381H92.106
	c-13.464,0-24.381-10.917-24.381-24.381v-44.983V183.109c0-13.477,10.917-24.381,24.381-24.381h195.048
	c13.464,0,24.381-10.917,24.381-24.381c0-13.477,10.917-24.381,24.381-24.381h143.577h8.127c13.464,0,24.381,10.904,24.381,24.381
	v24.381v43.344H512z"/>
<path style="fill:#7CCBCC;" d="M487.619,109.966h-8.127h-74.406l-165.34,373.841h247.873c13.464,0,24.381-10.917,24.381-24.381
	V202.071v-43.344v-24.381C512,120.87,501.082,109.966,487.619,109.966z"/>
<g>
	<path style="fill:#4D4D4D;" d="M254.641,233.947H130.028c-4.143,0-7.5-3.358-7.5-7.5s3.357-7.5,7.5-7.5h124.613
		c4.143,0,7.5,3.358,7.5,7.5S258.784,233.947,254.641,233.947z"/>
	<path style="fill:#4D4D4D;" d="M254.641,280H130.028c-4.143,0-7.5-3.358-7.5-7.5s3.357-7.5,7.5-7.5h124.613
		c4.143,0,7.5,3.358,7.5,7.5S258.784,280,254.641,280z"/>
</g>
<g>
</g>
<g>
</g>
<g>
</g>
<g>
</g>
<g>
</g>
<g>
</g>
<g>
</g>
<g>
</g>
<g>
</g>
<g>
</g>
<g>
</g>
<g>
</g>
<g>
</g>
<g>
</g>
<g>
</g>
</svg>
