<?xml version="1.0" encoding="UTF-8"?>
<!DOCTYPE svg PUBLIC "-//W3C//DTD SVG 1.1//EN" "http://www.w3.org/Graphics/SVG/1.1/DTD/svg11.dtd">
<!-- Creator: CorelDRAW X6 -->
<svg xmlns="http://www.w3.org/2000/svg" xml:space="preserve" width="100%" height="100%" version="1.1" style="shape-rendering:geometricPrecision; text-rendering:geometricPrecision; image-rendering:optimizeQuality; fill-rule:evenodd; clip-rule:evenodd"
viewBox="0 0 500 500"
 xmlns:xlink="http://www.w3.org/1999/xlink">
 <defs>
  <style type="text/css">
   <![CDATA[
    .fil1 {fill:#202020}
   ]]>
  </style>
 </defs>
 <g id="Layer_x0020_1">
  <metadata id="CorelCorpID_0Corel-Layer"/>
  <path class="fil1" d="M316 71c59,59 67,149 23,216l125 103c22,19 21,54 0,74 -20,20 -55,22 -73,0l-104 -125c-67,43 -157,35 -216,-24 -68,-67 -68,-177 0,-244 68,-68 177,-68 245,0zm-45 44c43,43 43,113 0,156 -43,43 -112,43 -155,0 -43,-43 -43,-113 0,-156 43,-43 112,-43 155,0z"/>
 </g>
</svg>
