<?xml version="1.0" encoding="utf-8"?>
<!-- Generator: Adobe Illustrator 23.1.0, SVG Export Plug-In . SVG Version: 6.00 Build 0)  -->
<svg version="1.1" id="Capa_1" xmlns="http://www.w3.org/2000/svg" xmlns:xlink="http://www.w3.org/1999/xlink" x="0px" y="0px"
	 viewBox="0 0 247.1 247.1" enable-background="new 0 0 247.1 247.1" xml:space="preserve">
<path fill="none" stroke="#000000" stroke-width="4.025" stroke-miterlimit="10" d="M50.5,213.7h64.6v-11.7H50.5
	c-3.2,0-5.9-2.6-5.9-5.9V43.3c0-3.2,2.6-5.9,5.9-5.9h76.4v29.4c0,9.7,7.9,17.6,17.6,17.6h29.4v23.5h11.7V83.4
	c0-4.7-1.9-9.2-5.2-12.5c0,0,0,0,0,0l-42.8-42.8c-1.1-1.1-2.6-1.5-4.1-1.5c-1.8-0.6-3.7-1-5.7-1H50.5c-9.7,0-17.6,7.9-17.6,17.6V196
	C32.9,205.8,40.8,213.6,50.5,213.7z M138.7,45.7l26.9,26.9h-21.1c-3.2,0-5.9-2.6-5.9-5.9V45.7z"/>
<circle fill="none" stroke="#000000" stroke-width="6.0376" stroke-miterlimit="10" cx="158.1" cy="165" r="55.8"/>
<line fill="none" stroke="#000000" stroke-width="6.0376" stroke-linecap="round" stroke-miterlimit="10" x1="185.7" y1="165" x2="130.5" y2="165"/>
<line fill="none" stroke="#000000" stroke-width="6.0376" stroke-linecap="round" stroke-miterlimit="10" x1="158.1" y1="137.4" x2="158.1" y2="192.6"/>
</svg>
