<?xml version="1.0" encoding="iso-8859-1"?>
<!-- Generator: Adobe Illustrator 19.0.0, SVG Export Plug-In . SVG Version: 6.00 Build 0)  -->
<svg version="1.1" id="Capa_1" xmlns="http://www.w3.org/2000/svg" xmlns:xlink="http://www.w3.org/1999/xlink" x="0px" y="0px"
	 viewBox="0 0 512 512" style="enable-background:new 0 0 512 512;" xml:space="preserve">
<path style="fill:#FFF5CB;" d="M512,512H0V0h512V512z"/>
<rect x="256" style="fill:#FFEC97;" width="256" height="512"/>
<path style="fill:#FFDBA9;" d="M512,130H0V0h512V130z"/>
<rect x="60" y="50" style="fill:#FF52A0;" width="30" height="30"/>
<rect x="110" y="50" style="fill:#FFDB2D;" width="30" height="30"/>
<rect x="160" y="50" style="fill:#6B77E8;" width="30" height="30"/>
<g>
	<path style="fill:#C3C8F6;" d="M150.553,236.295L60,289.687V244.41l31.608-18.58L60,205.541V162.4l90.553,55.101L150.553,236.295
		L150.553,236.295z"/>
	<path style="fill:#C3C8F6;" d="M170.84,209.599v-39.296h32.889v39.296H170.84z M170.84,281.144v-39.296h32.889v39.296H170.84z"/>
	<path style="fill:#C3C8F6;" d="M217.611,317.451v-36.307H293v36.307H217.611z"/>
</g>
<rect x="256" style="fill:#FFC473;" width="256" height="130"/>
<path style="fill:#979FEF;" d="M256,317.451v-36.307h37v36.307H256z"/>
<g>
</g>
<g>
</g>
<g>
</g>
<g>
</g>
<g>
</g>
<g>
</g>
<g>
</g>
<g>
</g>
<g>
</g>
<g>
</g>
<g>
</g>
<g>
</g>
<g>
</g>
<g>
</g>
<g>
</g>
</svg>
