<?xml version="1.0" encoding="UTF-8" standalone="no"?>
<svg width="32px" height="32px" viewBox="0 0 32 32" version="1.1" xmlns="http://www.w3.org/2000/svg" xmlns:xlink="http://www.w3.org/1999/xlink">
    <!-- Generator: Sketch 44.1 (41455) - http://www.bohemiancoding.com/sketch -->
    <title>Plus 3</title>
    <desc>Created with Sketch.</desc>
    <defs></defs>
    <g id="Page-2-Copy" stroke="none" stroke-width="1" fill="none" fill-rule="evenodd">
        <g id="125" stroke="#979797" fill-rule="nonzero" fill="#2A2630">
            <path d="M17,18 L28.4992263,18 C29.3264745,18 30,17.3261007 30,16.5 C30,15.670691 29.3294601,15 28.4992263,15 L17,15 L17,3.50077369 C17,2.67352547 16.3261007,2 15.5,2 C14.670691,2 14,2.67053994 14,3.50077369 L14,15 L3.50077369,15 C2.67352547,15 2,15.6738993 2,16.5 C2,17.329309 2.67053994,18 3.50077369,18 L14,18 L14,28.4992263 C14,29.3264745 14.6738993,30 15.5,30 C16.329309,30 17,29.3294601 17,28.4992263 L17,18 Z M12,13 L12,3.50077369 C12,1.56508869 13.5670034,0 15.5,0 C17.4290634,0 19,1.56734977 19,3.50077369 L19,13 L28.4992263,13 C30.4349113,13 32,14.5670034 32,16.5 C32,18.4290634 30.4326502,20 28.4992263,20 L19,20 L19,28.4992263 C19,30.4349113 17.4329966,32 15.5,32 C13.5709366,32 12,30.4326502 12,28.4992263 L12,20 L3.50077369,20 C1.56508869,20 0,18.4329966 0,16.5 C0,14.5709366 1.56734977,13 3.50077369,13 L12,13 Z" id="Rectangle-666" stroke="none"></path>
        </g>
    </g>
</svg>