<?xml version="1.0" encoding="iso-8859-1"?>
<!-- Generator: Adobe Illustrator 19.0.0, SVG Export Plug-In . SVG Version: 6.00 Build 0)  -->
<svg version="1.1" id="Capa_1" xmlns="http://www.w3.org/2000/svg" xmlns:xlink="http://www.w3.org/1999/xlink" x="0px" y="0px"
	 viewBox="0 0 504.123 504.123" style="enable-background:new 0 0 504.123 504.123;" xml:space="preserve">
<path style="fill:#FFFFFF;" d="M464.738,7.877H39.385c-17.329,0-31.508,14.178-31.508,31.508v351.311
	c0,17.329,14.178,31.508,31.508,31.508h425.354c17.329,0,31.508-14.178,31.508-31.508V39.385
	C496.246,22.055,482.068,7.877,464.738,7.877z"/>
<path style="fill:#183651;" d="M464.738,430.08H39.385C17.329,430.08,0,412.751,0,390.695V39.385C0,17.329,17.329,0,39.385,0
	h425.354c22.055,0,39.385,17.329,39.385,39.385v351.311C504.123,411.963,486.794,430.08,464.738,430.08z M39.385,15.754
	c-13.391,0-23.631,10.24-23.631,23.631v351.311c0,13.391,10.24,23.631,23.631,23.631h425.354c13.391,0,23.631-10.24,23.631-23.631
	V39.385c0-13.391-10.24-23.631-23.631-23.631H39.385z"/>
<rect x="39.385" y="39.385" style="fill:#2AA0DA;" width="425.354" height="297.748"/>
<polygon style="fill:#CFD0D1;" points="186.683,422.203 151.237,496.246 352.886,496.246 317.44,422.203 "/>
<g>
	<path style="fill:#183651;" d="M352.886,504.123H151.237c-2.363,0-5.514-1.575-6.302-3.938c-1.575-2.363-1.575-5.514-0.788-7.877
		l35.446-74.043c1.575-2.363,3.938-4.726,7.089-4.726h129.969c3.151,0,5.514,1.575,7.089,4.726l35.446,74.043
		c0.788,2.363,0.788,5.514-0.788,7.877C357.612,502.548,355.249,504.123,352.886,504.123z M163.84,488.369h175.655l-27.569-58.289
		H192.197L163.84,488.369z"/>
	<path style="fill:#183651;" d="M373.366,504.123H130.757c-4.726,0-7.877-3.151-7.877-7.877s3.151-7.877,7.877-7.877h242.609
		c4.726,0,7.877,3.151,7.877,7.877S377.305,504.123,373.366,504.123z"/>
</g>
<polygon style="fill:#E1E6E8;" points="252.062,284.357 163.052,244.972 163.052,138.634 252.062,184.32 "/>
<path style="fill:#183651;" d="M252.062,292.234c-0.788,0-2.363,0-3.151-0.788l-89.009-39.385c-3.151-1.575-4.726-3.938-4.726-7.089
	V138.634c0-2.363,1.575-5.514,3.938-7.089c2.363-1.575,5.514-1.575,7.877,0L256,177.231c2.363,1.575,3.938,3.938,3.938,7.089
	v100.037c0,2.363-1.575,5.514-3.938,6.302C255.212,292.234,253.637,292.234,252.062,292.234z M170.929,240.246l73.255,32.295
	v-83.495l-73.255-37.809V240.246z"/>
<polygon style="fill:#FFFFFF;" points="192.197,228.431 192.197,184.32 222.917,200.074 222.917,241.822 "/>
<polygon style="fill:#E1E6E8;" points="252.062,284.357 341.071,244.972 341.071,138.634 252.062,184.32 "/>
<path style="fill:#183651;" d="M252.062,292.234c-1.575,0-3.151-0.788-3.938-1.575c-2.363-1.575-3.938-3.938-3.938-6.302V184.32
	c0-3.151,1.575-5.514,3.938-7.089l89.009-46.474c2.363-1.575,5.514-0.788,7.877,0c2.363,1.575,3.938,3.938,3.938,7.089v107.126
	c0,3.151-1.575,6.302-4.726,7.089l-89.009,39.385C254.425,292.234,252.849,292.234,252.062,292.234z M259.938,189.046v83.495
	l73.255-32.295v-89.009L259.938,189.046z"/>
<polygon style="fill:#FFFFFF;" points="281.206,200.074 311.926,184.32 311.926,228.431 281.206,241.822 "/>
<polygon style="fill:#E1E6E8;" points="252.062,92.16 163.052,138.634 252.062,184.32 341.071,138.634 "/>
<path style="fill:#183651;" d="M252.062,192.197c-1.575,0-2.363,0-3.938-0.788l-89.009-46.474c-2.363-1.575-3.938-3.938-3.938-7.089
	c0-3.151,1.575-5.514,3.938-7.089l89.009-45.686c2.363-0.788,4.726-0.788,7.089,0l89.009,46.474
	c2.363,1.575,3.938,3.938,3.938,7.089s-1.575,5.514-3.938,7.089L256,191.409C254.425,192.197,253.637,192.197,252.062,192.197z
	 M179.594,138.634l72.468,37.022l72.468-37.022l-72.468-37.022L179.594,138.634z"/>
<polygon style="fill:#FFFFFF;" points="222.129,138.634 252.062,122.88 281.994,138.634 252.062,153.6 "/>
<g>
	<rect x="409.6" y="130.757" style="fill:#183651;" width="15.754" height="15.754"/>
	<rect x="409.6" y="180.382" style="fill:#183651;" width="15.754" height="15.754"/>
	<rect x="409.6" y="230.794" style="fill:#183651;" width="15.754" height="15.754"/>
	<rect x="78.769" y="130.757" style="fill:#183651;" width="15.754" height="15.754"/>
	<rect x="78.769" y="180.382" style="fill:#183651;" width="15.754" height="15.754"/>
	<rect x="78.769" y="230.794" style="fill:#183651;" width="15.754" height="15.754"/>
</g>
<circle style="fill:#CFD0D1;" cx="260.726" cy="374.942" r="18.905"/>
<g>
</g>
<g>
</g>
<g>
</g>
<g>
</g>
<g>
</g>
<g>
</g>
<g>
</g>
<g>
</g>
<g>
</g>
<g>
</g>
<g>
</g>
<g>
</g>
<g>
</g>
<g>
</g>
<g>
</g>
</svg>
